<svg width="261" height="261" viewBox="0 0 261 261" fill="none" xmlns="http://www.w3.org/2000/svg">
<g filter="url(#filter0_d_102_26)">
<path d="M40.0673 100.406C40.0673 70.2359 40.0673 55.1509 49.4398 45.7783C58.8124 36.4058 73.8974 36.4058 104.067 36.4058H156.067C186.237 36.4058 201.322 36.4058 210.695 45.7783C220.067 55.1509 220.067 70.2359 220.067 100.406V152.406C220.067 182.576 220.067 197.661 210.695 207.033C201.322 216.406 186.237 216.406 156.067 216.406H104.067C73.8974 216.406 58.8124 216.406 49.4398 207.033C40.0673 197.661 40.0673 182.576 40.0673 152.406V100.406Z" fill="white"/>
<path d="M49.4398 207.033L48.7327 207.74L49.4398 207.033ZM210.695 207.033L209.988 206.326L210.695 207.033ZM210.695 45.7783L211.402 45.0712L210.695 45.7783ZM104.067 37.4058H156.067V35.4058H104.067V37.4058ZM219.067 100.406V152.406H221.067V100.406H219.067ZM156.067 215.406H104.067V217.406H156.067V215.406ZM41.0673 152.406V100.406H39.0673V152.406H41.0673ZM104.067 215.406C88.954 215.406 77.7197 215.404 69.0878 214.243C60.4847 213.086 54.6165 210.796 50.147 206.326L48.7327 207.74C53.6358 212.643 59.9964 215.039 68.8213 216.225C77.6175 217.408 89.0106 217.406 104.067 217.406V215.406ZM39.0673 152.406C39.0673 167.462 39.0651 178.856 40.2478 187.652C41.4342 196.477 43.8297 202.837 48.7327 207.74L50.147 206.326C45.6774 201.857 43.3866 195.988 42.2299 187.385C41.0694 178.753 41.0673 167.519 41.0673 152.406H39.0673ZM219.067 152.406C219.067 167.519 219.065 178.753 217.905 187.385C216.748 195.988 214.457 201.857 209.988 206.326L211.402 207.74C216.305 202.837 218.7 196.477 219.887 187.652C221.069 178.856 221.067 167.462 221.067 152.406H219.067ZM156.067 217.406C171.124 217.406 182.517 217.408 191.313 216.225C200.138 215.039 206.499 212.643 211.402 207.74L209.988 206.326C205.518 210.796 199.65 213.086 191.047 214.243C182.415 215.404 171.18 215.406 156.067 215.406V217.406ZM156.067 37.4058C171.18 37.4058 182.415 37.4079 191.047 38.5684C199.65 39.7251 205.518 42.0159 209.988 46.4855L211.402 45.0712C206.499 40.1682 200.138 37.7727 191.313 36.5863C182.517 35.4036 171.124 35.4058 156.067 35.4058V37.4058ZM221.067 100.406C221.067 85.3491 221.069 73.956 219.887 65.1598C218.7 56.3349 216.305 49.9743 211.402 45.0712L209.988 46.4855C214.457 50.955 216.748 56.8232 217.905 65.4263C219.065 74.0582 219.067 85.2925 219.067 100.406H221.067ZM104.067 35.4058C89.0106 35.4058 77.6175 35.4036 68.8213 36.5863C59.9964 37.7727 53.6358 40.1682 48.7327 45.0712L50.147 46.4855C54.6165 42.0159 60.4847 39.7251 69.0878 38.5684C77.7197 37.4079 88.954 37.4058 104.067 37.4058V35.4058ZM41.0673 100.406C41.0673 85.2925 41.0694 74.0582 42.2299 65.4263C43.3866 56.8232 45.6774 50.955 50.147 46.4855L48.7327 45.0712C43.8297 49.9743 41.4342 56.3349 40.2478 65.1598C39.0651 73.956 39.0673 85.3491 39.0673 100.406H41.0673Z" fill="#D9D9D9"/>
</g>
<path fill-rule="evenodd" clip-rule="evenodd" d="M100.77 86.1697C95.0645 86.1697 90.8424 91.1638 91.0314 96.5798C91.2129 101.783 90.9771 108.522 89.2807 114.018C87.5781 119.529 84.7008 123.021 80 123.47V128.531C84.7008 128.98 87.5781 132.47 89.2805 137.982C90.9771 143.478 91.2127 150.217 91.0312 155.42C90.8422 160.836 95.0643 165.831 100.771 165.831H159.237C164.943 165.831 169.164 160.836 168.975 155.42C168.794 150.217 169.03 143.478 170.726 137.982C172.429 132.47 175.299 128.978 180 128.531V123.47C175.299 123.02 172.429 119.53 170.726 114.018C169.029 108.523 168.794 101.783 168.975 96.5798C169.164 91.1646 164.943 86.1697 159.237 86.1697H100.77H100.77ZM147.797 135.206C147.797 142.664 142.234 147.187 133.003 147.187H117.288C116.839 147.187 116.407 147.008 116.09 146.69C115.772 146.372 115.593 145.941 115.593 145.492V106.509C115.593 106.059 115.772 105.628 116.09 105.31C116.407 104.992 116.839 104.814 117.288 104.814H132.913C140.611 104.814 145.662 108.983 145.662 115.385C145.662 119.878 142.264 123.901 137.934 124.605V124.84C143.828 125.486 147.797 129.568 147.797 135.206V135.206ZM131.289 110.187H122.329V122.843H129.876C135.71 122.843 138.926 120.494 138.926 116.295C138.926 112.36 136.16 110.187 131.289 110.187ZM122.329 127.865V141.812H131.619C137.693 141.812 140.91 139.375 140.91 134.794C140.91 130.214 137.603 127.864 131.228 127.864H122.329V127.865Z" fill="#7952B3"/>
<defs>
<filter id="filter0_d_102_26" x="0.0672607" y="0.405762" width="260" height="260" filterUnits="userSpaceOnUse" color-interpolation-filters="sRGB">
<feFlood flood-opacity="0" result="BackgroundImageFix"/>
<feColorMatrix in="SourceAlpha" type="matrix" values="0 0 0 0 0 0 0 0 0 0 0 0 0 0 0 0 0 0 127 0" result="hardAlpha"/>
<feOffset dy="4"/>
<feGaussianBlur stdDeviation="20"/>
<feComposite in2="hardAlpha" operator="out"/>
<feColorMatrix type="matrix" values="0 0 0 0 0.0367917 0 0 0 0 0.0348958 0 0 0 0 0.0484375 0 0 0 0.1 0"/>
<feBlend mode="normal" in2="BackgroundImageFix" result="effect1_dropShadow_102_26"/>
<feBlend mode="normal" in="SourceGraphic" in2="effect1_dropShadow_102_26" result="shape"/>
</filter>
</defs>
</svg>
