<svg width="261" height="260" viewBox="0 0 261 260" fill="none" xmlns="http://www.w3.org/2000/svg">
<g filter="url(#filter0_d_102_9)">
<path d="M40.6195 100C40.6195 69.8301 40.6195 54.7452 49.9921 45.3726C59.3647 36 74.4496 36 104.62 36H156.62C186.789 36 201.874 36 211.247 45.3726C220.62 54.7452 220.62 69.8301 220.62 100V152C220.62 182.17 220.62 197.255 211.247 206.627C201.874 216 186.789 216 156.62 216H104.62C74.4496 216 59.3647 216 49.9921 206.627C40.6195 197.255 40.6195 182.17 40.6195 152V100Z" fill="white"/>
<path d="M49.9921 206.627L49.285 207.335L49.9921 206.627ZM211.247 206.627L210.54 205.92L211.247 206.627ZM211.247 45.3726L211.954 44.6655L211.247 45.3726ZM104.62 37H156.62V35H104.62V37ZM219.62 100V152H221.62V100H219.62ZM156.62 215H104.62V217H156.62V215ZM41.6195 152V100H39.6195V152H41.6195ZM104.62 215C89.5063 215 78.272 214.998 69.6401 213.837C61.0369 212.681 55.1687 210.39 50.6992 205.92L49.285 207.335C54.188 212.238 60.5486 214.633 69.3736 215.82C78.1697 217.002 89.5628 217 104.62 217V215ZM39.6195 152C39.6195 167.057 39.6174 178.45 40.8 187.246C41.9865 196.071 44.3819 202.431 49.285 207.335L50.6992 205.92C46.2297 201.451 43.9388 195.583 42.7822 186.979C41.6216 178.348 41.6195 167.113 41.6195 152H39.6195ZM219.62 152C219.62 167.113 219.617 178.348 218.457 186.979C217.3 195.583 215.009 201.451 210.54 205.92L211.954 207.335C216.857 202.431 219.253 196.071 220.439 187.246C221.622 178.45 221.62 167.057 221.62 152H219.62ZM156.62 217C171.676 217 183.069 217.002 191.865 215.82C200.69 214.633 207.051 212.238 211.954 207.335L210.54 205.92C206.07 210.39 200.202 212.681 191.599 213.837C182.967 214.998 171.733 215 156.62 215V217ZM156.62 37C171.733 37 182.967 37.0021 191.599 38.1627C200.202 39.3193 206.07 41.6102 210.54 46.0797L211.954 44.6655C207.051 39.7624 200.69 37.367 191.865 36.1805C183.069 34.9979 171.676 35 156.62 35V37ZM221.62 100C221.62 84.9433 221.622 73.5502 220.439 64.7541C219.253 55.9291 216.857 49.5685 211.954 44.6655L210.54 46.0797C215.009 50.5492 217.3 56.4174 218.457 65.0205C219.617 73.6525 219.62 84.8868 219.62 100H221.62ZM104.62 35C89.5628 35 78.1697 34.9979 69.3736 36.1805C60.5486 37.367 54.188 39.7624 49.285 44.6655L50.6992 46.0797C55.1687 41.6102 61.0369 39.3193 69.6401 38.1627C78.272 37.0021 89.5063 37 104.62 37V35ZM41.6195 100C41.6195 84.8868 41.6216 73.6525 42.7822 65.0205C43.9388 56.4174 46.2297 50.5492 50.6992 46.0797L49.285 44.6655C44.3819 49.5685 41.9865 55.9291 40.8 64.7541C39.6174 73.5502 39.6195 84.9433 39.6195 100H41.6195Z" fill="#D9D9D9"/>
</g>
<path d="M175.087 76L167.054 165.99L130.946 176L94.937 166.004L86.9125 76H175.087Z" fill="#264DE4"/>
<path d="M160.177 160.259L167.042 83.3591H131V168.348L160.177 160.259Z" fill="#2965F1"/>
<path d="M105.308 116.74L106.298 127.779H131V116.74H105.308Z" fill="#EBEBEB"/>
<path d="M131 94.3977H130.962H103.32L104.324 105.436H131V94.3977Z" fill="#EBEBEB"/>
<path d="M131 156.893V145.408L130.952 145.421L118.658 142.102L117.872 133.298H111.898H106.791L108.337 150.63L130.949 156.907L131 156.893Z" fill="#EBEBEB"/>
<path d="M144.555 127.779L143.273 142.095L130.962 145.418V156.902L153.592 150.63L153.758 148.765L156.352 119.704L156.621 116.74L158.614 94.3977H130.962V105.436H146.516L145.512 116.74H130.962V127.779H144.555Z" fill="white"/>
<defs>
<filter id="filter0_d_102_9" x="0.619507" y="0" width="260" height="260" filterUnits="userSpaceOnUse" color-interpolation-filters="sRGB">
<feFlood flood-opacity="0" result="BackgroundImageFix"/>
<feColorMatrix in="SourceAlpha" type="matrix" values="0 0 0 0 0 0 0 0 0 0 0 0 0 0 0 0 0 0 127 0" result="hardAlpha"/>
<feOffset dy="4"/>
<feGaussianBlur stdDeviation="20"/>
<feComposite in2="hardAlpha" operator="out"/>
<feColorMatrix type="matrix" values="0 0 0 0 0.0367917 0 0 0 0 0.0348958 0 0 0 0 0.0484375 0 0 0 0.1 0"/>
<feBlend mode="normal" in2="BackgroundImageFix" result="effect1_dropShadow_102_9"/>
<feBlend mode="normal" in="SourceGraphic" in2="effect1_dropShadow_102_9" result="shape"/>
</filter>
</defs>
</svg>
