<svg width="261" height="260" viewBox="0 0 261 260" fill="none" xmlns="http://www.w3.org/2000/svg">
<g filter="url(#filter0_d_102_18)">
<path d="M40.8956 100C40.8956 69.8301 40.8956 54.7452 50.2682 45.3726C59.6408 36 74.7257 36 104.896 36H156.896C187.066 36 202.15 36 211.523 45.3726C220.896 54.7452 220.896 69.8301 220.896 100V152C220.896 182.17 220.896 197.255 211.523 206.627C202.15 216 187.066 216 156.896 216H104.896C74.7257 216 59.6408 216 50.2682 206.627C40.8956 197.255 40.8956 182.17 40.8956 152V100Z" fill="white"/>
<path d="M50.2682 206.627L49.5611 207.335L50.2682 206.627ZM211.523 206.627L210.816 205.92L211.523 206.627ZM211.523 45.3726L212.23 44.6655L211.523 45.3726ZM104.896 37H156.896V35H104.896V37ZM219.896 100V152H221.896V100H219.896ZM156.896 215H104.896V217H156.896V215ZM41.8956 152V100H39.8956V152H41.8956ZM104.896 215C89.7824 215 78.5481 214.998 69.9162 213.837C61.313 212.681 55.4448 210.39 50.9753 205.92L49.5611 207.335C54.4642 212.238 60.8247 214.633 69.6497 215.82C78.4458 217.002 89.839 217 104.896 217V215ZM39.8956 152C39.8956 167.057 39.8935 178.45 41.0761 187.246C42.2626 196.071 44.658 202.431 49.5611 207.335L50.9753 205.92C46.5058 201.451 44.2149 195.583 43.0583 186.979C41.8978 178.348 41.8956 167.113 41.8956 152H39.8956ZM219.896 152C219.896 167.113 219.894 178.348 218.733 186.979C217.576 195.583 215.285 201.451 210.816 205.92L212.23 207.335C217.133 202.431 219.529 196.071 220.715 187.246C221.898 178.45 221.896 167.057 221.896 152H219.896ZM156.896 217C171.952 217 183.345 217.002 192.142 215.82C200.967 214.633 207.327 212.238 212.23 207.335L210.816 205.92C206.346 210.39 200.478 212.681 191.875 213.837C183.243 214.998 172.009 215 156.896 215V217ZM156.896 37C172.009 37 183.243 37.0021 191.875 38.1627C200.478 39.3193 206.346 41.6102 210.816 46.0797L212.23 44.6655C207.327 39.7624 200.967 37.367 192.142 36.1805C183.345 34.9979 171.952 35 156.896 35V37ZM221.896 100C221.896 84.9433 221.898 73.5502 220.715 64.7541C219.529 55.9291 217.133 49.5685 212.23 44.6655L210.816 46.0797C215.285 50.5492 217.576 56.4174 218.733 65.0205C219.894 73.6525 219.896 84.8868 219.896 100H221.896ZM104.896 35C89.839 35 78.4459 34.9979 69.6497 36.1805C60.8248 37.367 54.4642 39.7624 49.5611 44.6655L50.9753 46.0797C55.4448 41.6102 61.313 39.3193 69.9162 38.1627C78.5481 37.0021 89.7824 37 104.896 37V35ZM41.8956 100C41.8956 84.8868 41.8978 73.6525 43.0583 65.0205C44.2149 56.4174 46.5058 50.5492 50.9753 46.0797L49.5611 44.6655C44.658 49.5685 42.2626 55.9291 41.0761 64.7541C39.8935 73.5502 39.8956 84.9433 39.8956 100H41.8956Z" fill="#D9D9D9"/>
</g>
<path d="M114.333 176C123.533 176 131 168.533 131 159.333V142.667H114.333C105.133 142.667 97.6667 150.133 97.6667 159.333C97.6667 168.533 105.133 176 114.333 176Z" fill="#0ACF83"/>
<path d="M97.6667 126C97.6667 116.8 105.133 109.333 114.333 109.333H131V142.667H114.333C105.133 142.667 97.6667 135.2 97.6667 126Z" fill="#A259FF"/>
<path d="M97.6667 92.6667C97.6667 83.4667 105.133 76 114.333 76H131V109.333H114.333C105.133 109.333 97.6667 101.867 97.6667 92.6667Z" fill="#F24E1E"/>
<path d="M131 76H147.667C156.867 76 164.333 83.4667 164.333 92.6667C164.333 101.867 156.867 109.333 147.667 109.333H131V76Z" fill="#FF7262"/>
<path d="M164.333 126C164.333 135.2 156.867 142.667 147.667 142.667C138.467 142.667 131 135.2 131 126C131 116.8 138.467 109.333 147.667 109.333C156.867 109.333 164.333 116.8 164.333 126Z" fill="#1ABCFE"/>
<defs>
<filter id="filter0_d_102_18" x="0.89563" y="0" width="260" height="260" filterUnits="userSpaceOnUse" color-interpolation-filters="sRGB">
<feFlood flood-opacity="0" result="BackgroundImageFix"/>
<feColorMatrix in="SourceAlpha" type="matrix" values="0 0 0 0 0 0 0 0 0 0 0 0 0 0 0 0 0 0 127 0" result="hardAlpha"/>
<feOffset dy="4"/>
<feGaussianBlur stdDeviation="20"/>
<feComposite in2="hardAlpha" operator="out"/>
<feColorMatrix type="matrix" values="0 0 0 0 0.0367917 0 0 0 0 0.0348958 0 0 0 0 0.0484375 0 0 0 0.1 0"/>
<feBlend mode="normal" in2="BackgroundImageFix" result="effect1_dropShadow_102_18"/>
<feBlend mode="normal" in="SourceGraphic" in2="effect1_dropShadow_102_18" result="shape"/>
</filter>
</defs>
</svg>
