<svg width="260" height="260" viewBox="0 0 260 260" fill="none" xmlns="http://www.w3.org/2000/svg">
<g filter="url(#filter0_d_102_2)">
<path d="M40 100C40 69.8301 40 54.7452 49.3726 45.3726C58.7452 36 73.8301 36 104 36H156C186.17 36 201.255 36 210.627 45.3726C220 54.7452 220 69.8301 220 100V152C220 182.17 220 197.255 210.627 206.627C201.255 216 186.17 216 156 216H104C73.8301 216 58.7452 216 49.3726 206.627C40 197.255 40 182.17 40 152V100Z" fill="white"/>
<path d="M49.3726 206.627L48.6655 207.335L49.3726 206.627ZM210.627 206.627L209.92 205.92L210.627 206.627ZM210.627 45.3726L211.335 44.6655L210.627 45.3726ZM104 37H156V35H104V37ZM219 100V152H221V100H219ZM156 215H104V217H156V215ZM41 152V100H39V152H41ZM104 215C88.8868 215 77.6525 214.998 69.0205 213.837C60.4174 212.681 54.5492 210.39 50.0797 205.92L48.6655 207.335C53.5685 212.238 59.9291 214.633 68.7541 215.82C77.5502 217.002 88.9433 217 104 217V215ZM39 152C39 167.057 38.9979 178.45 40.1805 187.246C41.367 196.071 43.7624 202.431 48.6655 207.335L50.0797 205.92C45.6102 201.451 43.3193 195.583 42.1627 186.979C41.0021 178.348 41 167.113 41 152H39ZM219 152C219 167.113 218.998 178.348 217.837 186.979C216.681 195.583 214.39 201.451 209.92 205.92L211.335 207.335C216.238 202.431 218.633 196.071 219.82 187.246C221.002 178.45 221 167.057 221 152H219ZM156 217C171.057 217 182.45 217.002 191.246 215.82C200.071 214.633 206.431 212.238 211.335 207.335L209.92 205.92C205.451 210.39 199.583 212.681 190.979 213.837C182.348 214.998 171.113 215 156 215V217ZM156 37C171.113 37 182.348 37.0021 190.979 38.1627C199.583 39.3193 205.451 41.6102 209.92 46.0797L211.335 44.6655C206.431 39.7624 200.071 37.367 191.246 36.1805C182.45 34.9979 171.057 35 156 35V37ZM221 100C221 84.9433 221.002 73.5502 219.82 64.7541C218.633 55.9291 216.238 49.5685 211.335 44.6655L209.92 46.0797C214.39 50.5492 216.681 56.4174 217.837 65.0205C218.998 73.6525 219 84.8868 219 100H221ZM104 35C88.9433 35 77.5502 34.9979 68.7541 36.1805C59.9291 37.367 53.5685 39.7624 48.6655 44.6655L50.0797 46.0797C54.5492 41.6102 60.4174 39.3193 69.0205 38.1627C77.6525 37.0021 88.8868 37 104 37V35ZM41 100C41 84.8868 41.0021 73.6525 42.1627 65.0205C43.3193 56.4174 45.6102 50.5492 50.0797 46.0797L48.6655 44.6655C43.7624 49.5685 41.367 55.9291 40.1805 64.7541C38.9979 73.5502 39 84.9433 39 100H41Z" fill="#D9D9D9"/>
</g>
<path d="M93.9281 166.034L85.9067 76H174.093L166.072 165.985L129.927 176" fill="#E44D26"/>
<path d="M130 168.344V83.3901H166.047L159.168 160.201" fill="#F16529"/>
<path d="M102.29 94.4009H130V105.436H114.395L115.416 116.739H130V127.75H105.304L102.29 94.4009ZM105.79 133.292H116.874L117.652 142.116L130 145.422V156.943L107.346 150.624" fill="#EBEBEB"/>
<path d="M157.613 94.4009H129.951V105.436H156.592L157.613 94.4009ZM155.595 116.739H129.951V127.775H143.563L142.275 142.116L129.951 145.422V156.895L152.557 150.624" fill="white"/>
<defs>
<filter id="filter0_d_102_2" x="0" y="0" width="260" height="260" filterUnits="userSpaceOnUse" color-interpolation-filters="sRGB">
<feFlood flood-opacity="0" result="BackgroundImageFix"/>
<feColorMatrix in="SourceAlpha" type="matrix" values="0 0 0 0 0 0 0 0 0 0 0 0 0 0 0 0 0 0 127 0" result="hardAlpha"/>
<feOffset dy="4"/>
<feGaussianBlur stdDeviation="20"/>
<feComposite in2="hardAlpha" operator="out"/>
<feColorMatrix type="matrix" values="0 0 0 0 0.0367917 0 0 0 0 0.0348958 0 0 0 0 0.0484375 0 0 0 0.1 0"/>
<feBlend mode="normal" in2="BackgroundImageFix" result="effect1_dropShadow_102_2"/>
<feBlend mode="normal" in="SourceGraphic" in2="effect1_dropShadow_102_2" result="shape"/>
</filter>
</defs>
</svg>
