<svg width="261" height="261" viewBox="0 0 261 261" fill="none" xmlns="http://www.w3.org/2000/svg">
<g filter="url(#filter0_d_102_37)">
<path d="M40.1718 100.406C40.1718 70.2359 40.1718 55.1509 49.5443 45.7783C58.9169 36.4058 74.0019 36.4058 104.172 36.4058H156.172C186.342 36.4058 201.427 36.4058 210.799 45.7783C220.172 55.1509 220.172 70.2359 220.172 100.406V152.406C220.172 182.576 220.172 197.661 210.799 207.033C201.427 216.406 186.342 216.406 156.172 216.406H104.172C74.0019 216.406 58.9169 216.406 49.5443 207.033C40.1718 197.661 40.1718 182.576 40.1718 152.406V100.406Z" fill="white"/>
<path d="M49.5443 207.033L48.8372 207.74L49.5443 207.033ZM210.799 207.033L210.092 206.326L210.799 207.033ZM210.799 45.7783L211.506 45.0712L210.799 45.7783ZM104.172 37.4058H156.172V35.4058H104.172V37.4058ZM219.172 100.406V152.406H221.172V100.406H219.172ZM156.172 215.406H104.172V217.406H156.172V215.406ZM41.1718 152.406V100.406H39.1718V152.406H41.1718ZM104.172 215.406C89.0585 215.406 77.8242 215.404 69.1923 214.243C60.5891 213.086 54.721 210.796 50.2514 206.326L48.8372 207.74C53.7403 212.643 60.1009 215.039 68.9258 216.225C77.722 217.408 89.1151 217.406 104.172 217.406V215.406ZM39.1718 152.406C39.1718 167.462 39.1696 178.856 40.3522 187.652C41.5387 196.477 43.9342 202.837 48.8372 207.74L50.2514 206.326C45.7819 201.857 43.4911 195.988 42.3344 187.385C41.1739 178.753 41.1718 167.519 41.1718 152.406H39.1718ZM219.172 152.406C219.172 167.519 219.17 178.753 218.009 187.385C216.852 195.988 214.562 201.857 210.092 206.326L211.506 207.74C216.409 202.837 218.805 196.477 219.991 187.652C221.174 178.856 221.172 167.462 221.172 152.406H219.172ZM156.172 217.406C171.228 217.406 182.622 217.408 191.418 216.225C200.243 215.039 206.603 212.643 211.506 207.74L210.092 206.326C205.623 210.796 199.754 213.086 191.151 214.243C182.519 215.404 171.285 215.406 156.172 215.406V217.406ZM156.172 37.4058C171.285 37.4058 182.519 37.4079 191.151 38.5684C199.754 39.7251 205.623 42.0159 210.092 46.4855L211.506 45.0712C206.603 40.1682 200.243 37.7727 191.418 36.5863C182.622 35.4036 171.228 35.4058 156.172 35.4058V37.4058ZM221.172 100.406C221.172 85.3491 221.174 73.956 219.991 65.1598C218.805 56.3349 216.409 49.9743 211.506 45.0712L210.092 46.4855C214.562 50.955 216.852 56.8232 218.009 65.4263C219.17 74.0582 219.172 85.2925 219.172 100.406H221.172ZM104.172 35.4058C89.1151 35.4058 77.722 35.4036 68.9258 36.5863C60.1009 37.7727 53.7403 40.1682 48.8372 45.0712L50.2514 46.4855C54.721 42.0159 60.5891 39.7251 69.1923 38.5684C77.8242 37.4079 89.0585 37.4058 104.172 37.4058V35.4058ZM41.1718 100.406C41.1718 85.2925 41.1739 74.0582 42.3344 65.4263C43.4911 56.8232 45.7819 50.955 50.2514 46.4855L48.8372 45.0712C43.9342 49.9743 41.5387 56.3349 40.3522 65.1598C39.1696 73.956 39.1718 85.3491 39.1718 100.406H41.1718Z" fill="#D9D9D9"/>
</g>
<path d="M180 76H80V176H180V76Z" fill="#F7DF1E"/>
<path d="M147.175 154.125C149.189 157.414 151.81 159.832 156.444 159.832C160.338 159.832 162.825 157.886 162.825 155.197C162.825 151.975 160.27 150.833 155.984 148.959L153.635 147.951C146.854 145.062 142.349 141.443 142.349 133.792C142.349 126.744 147.719 121.379 156.111 121.379C162.086 121.379 166.381 123.459 169.476 128.903L162.159 133.602C160.548 130.713 158.81 129.575 156.111 129.575C153.359 129.575 151.614 131.321 151.614 133.602C151.614 136.421 153.36 137.562 157.392 139.308L159.741 140.314C167.725 143.738 172.233 147.229 172.233 155.076C172.233 163.537 165.587 168.171 156.662 168.171C147.935 168.171 142.297 164.013 139.538 158.562L147.175 154.125ZM113.979 154.94C115.456 157.559 116.798 159.773 120.027 159.773C123.114 159.773 125.062 158.565 125.062 153.868V121.916H134.459V153.995C134.459 163.725 128.754 168.154 120.427 168.154C112.903 168.154 108.546 164.26 106.33 159.571L113.979 154.94Z" fill="black"/>
<defs>
<filter id="filter0_d_102_37" x="0.171753" y="0.405762" width="260" height="260" filterUnits="userSpaceOnUse" color-interpolation-filters="sRGB">
<feFlood flood-opacity="0" result="BackgroundImageFix"/>
<feColorMatrix in="SourceAlpha" type="matrix" values="0 0 0 0 0 0 0 0 0 0 0 0 0 0 0 0 0 0 127 0" result="hardAlpha"/>
<feOffset dy="4"/>
<feGaussianBlur stdDeviation="20"/>
<feComposite in2="hardAlpha" operator="out"/>
<feColorMatrix type="matrix" values="0 0 0 0 0.0367917 0 0 0 0 0.0348958 0 0 0 0 0.0484375 0 0 0 0.1 0"/>
<feBlend mode="normal" in2="BackgroundImageFix" result="effect1_dropShadow_102_37"/>
<feBlend mode="normal" in="SourceGraphic" in2="effect1_dropShadow_102_37" result="shape"/>
</filter>
</defs>
</svg>
