<svg width="261" height="261" viewBox="0 0 261 261" fill="none" xmlns="http://www.w3.org/2000/svg">
<g filter="url(#filter0_d_102_48)">
<path d="M40.6195 100.406C40.6195 70.2359 40.6195 55.1509 49.9921 45.7783C59.3647 36.4058 74.4496 36.4058 104.62 36.4058H156.62C186.789 36.4058 201.874 36.4058 211.247 45.7783C220.62 55.1509 220.62 70.2359 220.62 100.406V152.406C220.62 182.576 220.62 197.661 211.247 207.033C201.874 216.406 186.789 216.406 156.62 216.406H104.62C74.4496 216.406 59.3647 216.406 49.9921 207.033C40.6195 197.661 40.6195 182.576 40.6195 152.406V100.406Z" fill="white"/>
<path d="M49.9921 207.033L49.285 207.74L49.9921 207.033ZM211.247 207.033L210.54 206.326L211.247 207.033ZM211.247 45.7783L211.954 45.0712L211.247 45.7783ZM104.62 37.4058H156.62V35.4058H104.62V37.4058ZM219.62 100.406V152.406H221.62V100.406H219.62ZM156.62 215.406H104.62V217.406H156.62V215.406ZM41.6195 152.406V100.406H39.6195V152.406H41.6195ZM104.62 215.406C89.5063 215.406 78.272 215.404 69.6401 214.243C61.0369 213.086 55.1687 210.796 50.6992 206.326L49.285 207.74C54.188 212.643 60.5486 215.039 69.3736 216.225C78.1697 217.408 89.5628 217.406 104.62 217.406V215.406ZM39.6195 152.406C39.6195 167.462 39.6174 178.856 40.8 187.652C41.9865 196.477 44.3819 202.837 49.285 207.74L50.6992 206.326C46.2297 201.857 43.9388 195.988 42.7822 187.385C41.6216 178.753 41.6195 167.519 41.6195 152.406H39.6195ZM219.62 152.406C219.62 167.519 219.617 178.753 218.457 187.385C217.3 195.988 215.009 201.857 210.54 206.326L211.954 207.74C216.857 202.837 219.253 196.477 220.439 187.652C221.622 178.856 221.62 167.462 221.62 152.406H219.62ZM156.62 217.406C171.676 217.406 183.069 217.408 191.865 216.225C200.69 215.039 207.051 212.643 211.954 207.74L210.54 206.326C206.07 210.796 200.202 213.086 191.599 214.243C182.967 215.404 171.733 215.406 156.62 215.406V217.406ZM156.62 37.4058C171.733 37.4058 182.967 37.4079 191.599 38.5684C200.202 39.7251 206.07 42.0159 210.54 46.4855L211.954 45.0712C207.051 40.1682 200.69 37.7727 191.865 36.5863C183.069 35.4036 171.676 35.4058 156.62 35.4058V37.4058ZM221.62 100.406C221.62 85.3491 221.622 73.956 220.439 65.1598C219.253 56.3349 216.857 49.9743 211.954 45.0712L210.54 46.4855C215.009 50.955 217.3 56.8232 218.457 65.4263C219.617 74.0582 219.62 85.2925 219.62 100.406H221.62ZM104.62 35.4058C89.5628 35.4058 78.1697 35.4036 69.3736 36.5863C60.5486 37.7727 54.188 40.1682 49.285 45.0712L50.6992 46.4855C55.1687 42.0159 61.0369 39.7251 69.6401 38.5684C78.272 37.4079 89.5063 37.4058 104.62 37.4058V35.4058ZM41.6195 100.406C41.6195 85.2925 41.6216 74.0582 42.7822 65.4263C43.9388 56.8232 46.2297 50.955 50.6992 46.4855L49.285 45.0712C44.3819 49.9743 41.9865 56.3349 40.8 65.1598C39.6174 73.956 39.6195 85.3491 39.6195 100.406H41.6195Z" fill="#D9D9D9"/>
</g>
<path fill-rule="evenodd" clip-rule="evenodd" d="M101.533 113.096L131.278 170.987L81.2825 113.096H101.533Z" fill="#EA6C00"/>
<path fill-rule="evenodd" clip-rule="evenodd" d="M161.032 113.096L131.287 170.987L181.282 113.096H161.032Z" fill="#EA6C00"/>
<path fill-rule="evenodd" clip-rule="evenodd" d="M101.532 113.096H161.022L131.277 170.987L101.532 113.096Z" fill="#FDAD00"/>
<path fill-rule="evenodd" clip-rule="evenodd" d="M131.277 81.0132L103.098 83.9751L101.532 113.096L131.277 81.0132Z" fill="#FDD231"/>
<path fill-rule="evenodd" clip-rule="evenodd" d="M131.277 81.0132L159.457 83.9751L161.022 113.096L131.277 81.0132Z" fill="#FDD231"/>
<path fill-rule="evenodd" clip-rule="evenodd" d="M181.282 113.096L159.466 83.9751L161.032 113.096H181.282Z" fill="#FDAD00"/>
<path fill-rule="evenodd" clip-rule="evenodd" d="M81.2825 113.096L103.099 83.9751L101.533 113.096H81.2825Z" fill="#FDAD00"/>
<path fill-rule="evenodd" clip-rule="evenodd" d="M131.277 81.0132L101.532 113.096H161.022L131.277 81.0132Z" fill="#FEEEB7"/>
<defs>
<filter id="filter0_d_102_48" x="0.619507" y="0.405762" width="260" height="260" filterUnits="userSpaceOnUse" color-interpolation-filters="sRGB">
<feFlood flood-opacity="0" result="BackgroundImageFix"/>
<feColorMatrix in="SourceAlpha" type="matrix" values="0 0 0 0 0 0 0 0 0 0 0 0 0 0 0 0 0 0 127 0" result="hardAlpha"/>
<feOffset dy="4"/>
<feGaussianBlur stdDeviation="20"/>
<feComposite in2="hardAlpha" operator="out"/>
<feColorMatrix type="matrix" values="0 0 0 0 0.0367917 0 0 0 0 0.0348958 0 0 0 0 0.0484375 0 0 0 0.1 0"/>
<feBlend mode="normal" in2="BackgroundImageFix" result="effect1_dropShadow_102_48"/>
<feBlend mode="normal" in="SourceGraphic" in2="effect1_dropShadow_102_48" result="shape"/>
</filter>
</defs>
</svg>
