<svg width="261" height="261" viewBox="0 0 261 261" fill="none" xmlns="http://www.w3.org/2000/svg">
<g filter="url(#filter0_d_102_59)">
<path d="M40.8956 100.406C40.8956 70.2359 40.8956 55.1509 50.2682 45.7783C59.6408 36.4058 74.7257 36.4058 104.896 36.4058H156.896C187.066 36.4058 202.15 36.4058 211.523 45.7783C220.896 55.1509 220.896 70.2359 220.896 100.406V152.406C220.896 182.576 220.896 197.661 211.523 207.033C202.15 216.406 187.066 216.406 156.896 216.406H104.896C74.7257 216.406 59.6408 216.406 50.2682 207.033C40.8956 197.661 40.8956 182.576 40.8956 152.406V100.406Z" fill="white"/>
<path d="M50.2682 207.033L49.5611 207.74L50.2682 207.033ZM211.523 207.033L210.816 206.326L211.523 207.033ZM211.523 45.7783L212.23 45.0712L211.523 45.7783ZM104.896 37.4058H156.896V35.4058H104.896V37.4058ZM219.896 100.406V152.406H221.896V100.406H219.896ZM156.896 215.406H104.896V217.406H156.896V215.406ZM41.8956 152.406V100.406H39.8956V152.406H41.8956ZM104.896 215.406C89.7824 215.406 78.5481 215.404 69.9162 214.243C61.313 213.086 55.4448 210.796 50.9753 206.326L49.5611 207.74C54.4642 212.643 60.8247 215.039 69.6497 216.225C78.4458 217.408 89.839 217.406 104.896 217.406V215.406ZM39.8956 152.406C39.8956 167.462 39.8935 178.856 41.0761 187.652C42.2626 196.477 44.658 202.837 49.5611 207.74L50.9753 206.326C46.5058 201.857 44.2149 195.988 43.0583 187.385C41.8978 178.753 41.8956 167.519 41.8956 152.406H39.8956ZM219.896 152.406C219.896 167.519 219.894 178.753 218.733 187.385C217.576 195.988 215.285 201.857 210.816 206.326L212.23 207.74C217.133 202.837 219.529 196.477 220.715 187.652C221.898 178.856 221.896 167.462 221.896 152.406H219.896ZM156.896 217.406C171.952 217.406 183.345 217.408 192.142 216.225C200.967 215.039 207.327 212.643 212.23 207.74L210.816 206.326C206.346 210.796 200.478 213.086 191.875 214.243C183.243 215.404 172.009 215.406 156.896 215.406V217.406ZM156.896 37.4058C172.009 37.4058 183.243 37.4079 191.875 38.5684C200.478 39.7251 206.346 42.0159 210.816 46.4855L212.23 45.0712C207.327 40.1682 200.967 37.7727 192.142 36.5863C183.345 35.4036 171.952 35.4058 156.896 35.4058V37.4058ZM221.896 100.406C221.896 85.3491 221.898 73.956 220.715 65.1598C219.529 56.3349 217.133 49.9743 212.23 45.0712L210.816 46.4855C215.285 50.955 217.576 56.8232 218.733 65.4263C219.894 74.0582 219.896 85.2925 219.896 100.406H221.896ZM104.896 35.4058C89.839 35.4058 78.4459 35.4036 69.6497 36.5863C60.8248 37.7727 54.4642 40.1682 49.5611 45.0712L50.9753 46.4855C55.4448 42.0159 61.313 39.7251 69.9162 38.5684C78.5481 37.4079 89.7824 37.4058 104.896 37.4058V35.4058ZM41.8956 100.406C41.8956 85.2925 41.8978 74.0582 43.0583 65.4263C44.2149 56.8232 46.5058 50.955 50.9753 46.4855L49.5611 45.0712C44.658 49.9743 42.2626 56.3349 41.0761 65.1598C39.8935 73.956 39.8956 85.3491 39.8956 100.406H41.8956Z" fill="#D9D9D9"/>
</g>
<path d="M131 96.0081C117.666 96.0081 109.333 102.673 105.999 116.002C111 109.337 116.833 106.838 123.5 108.504C127.304 109.454 130.022 112.214 133.032 115.268C137.934 120.242 143.607 125.999 156.001 125.999C169.333 125.999 177.667 119.334 181 106.004C176.001 112.669 170.167 115.169 163.5 113.503C159.697 112.553 156.978 109.793 153.969 106.74C149.067 101.765 143.392 96.0081 131 96.0081V96.0081ZM105.999 125.999C92.6669 125.999 84.3325 132.664 81 145.994C85.9994 139.329 91.8328 136.83 98.5003 138.496C102.303 139.448 105.022 142.207 108.031 145.259C112.933 150.233 118.608 155.992 131 155.992C144.334 155.992 152.667 149.327 156.001 135.997C151 142.662 145.167 145.161 138.5 143.495C134.696 142.545 131.978 139.784 128.968 136.732C124.066 131.758 118.393 125.999 105.999 125.999V125.999Z" fill="#06B6D4"/>
<defs>
<filter id="filter0_d_102_59" x="0.89563" y="0.405762" width="260" height="260" filterUnits="userSpaceOnUse" color-interpolation-filters="sRGB">
<feFlood flood-opacity="0" result="BackgroundImageFix"/>
<feColorMatrix in="SourceAlpha" type="matrix" values="0 0 0 0 0 0 0 0 0 0 0 0 0 0 0 0 0 0 127 0" result="hardAlpha"/>
<feOffset dy="4"/>
<feGaussianBlur stdDeviation="20"/>
<feComposite in2="hardAlpha" operator="out"/>
<feColorMatrix type="matrix" values="0 0 0 0 0.0367917 0 0 0 0 0.0348958 0 0 0 0 0.0484375 0 0 0 0.1 0"/>
<feBlend mode="normal" in2="BackgroundImageFix" result="effect1_dropShadow_102_59"/>
<feBlend mode="normal" in="SourceGraphic" in2="effect1_dropShadow_102_59" result="shape"/>
</filter>
</defs>
</svg>
