<svg width="261" height="261" viewBox="0 0 261 261" fill="none" xmlns="http://www.w3.org/2000/svg">
<g filter="url(#filter0_d_102_62)">
<path d="M40.724 100.406C40.724 70.2359 40.724 55.1509 50.0966 45.7783C59.4692 36.4058 74.5541 36.4058 104.724 36.4058H156.724C186.894 36.4058 201.979 36.4058 211.351 45.7783C220.724 55.1509 220.724 70.2359 220.724 100.406V152.406C220.724 182.576 220.724 197.661 211.351 207.033C201.979 216.406 186.894 216.406 156.724 216.406H104.724C74.5541 216.406 59.4692 216.406 50.0966 207.033C40.724 197.661 40.724 182.576 40.724 152.406V100.406Z" fill="white"/>
<path d="M50.0966 207.033L49.3895 207.74L50.0966 207.033ZM211.351 207.033L210.644 206.326L211.351 207.033ZM211.351 45.7783L212.059 45.0712L211.351 45.7783ZM104.724 37.4058H156.724V35.4058H104.724V37.4058ZM219.724 100.406V152.406H221.724V100.406H219.724ZM156.724 215.406H104.724V217.406H156.724V215.406ZM41.724 152.406V100.406H39.724V152.406H41.724ZM104.724 215.406C89.6108 215.406 78.3765 215.404 69.7445 214.243C61.1414 213.086 55.2732 210.796 50.8037 206.326L49.3895 207.74C54.2925 212.643 60.6531 215.039 69.4781 216.225C78.2742 217.408 89.6673 217.406 104.724 217.406V215.406ZM39.724 152.406C39.724 167.462 39.7219 178.856 40.9045 187.652C42.091 196.477 44.4864 202.837 49.3895 207.74L50.8037 206.326C46.3342 201.857 44.0433 195.988 42.8867 187.385C41.7261 178.753 41.724 167.519 41.724 152.406H39.724ZM219.724 152.406C219.724 167.519 219.722 178.753 218.561 187.385C217.405 195.988 215.114 201.857 210.644 206.326L212.059 207.74C216.962 202.837 219.357 196.477 220.544 187.652C221.726 178.856 221.724 167.462 221.724 152.406H219.724ZM156.724 217.406C171.781 217.406 183.174 217.408 191.97 216.225C200.795 215.039 207.155 212.643 212.059 207.74L210.644 206.326C206.175 210.796 200.307 213.086 191.703 214.243C183.072 215.404 171.837 215.406 156.724 215.406V217.406ZM156.724 37.4058C171.837 37.4058 183.072 37.4079 191.703 38.5684C200.307 39.7251 206.175 42.0159 210.644 46.4855L212.059 45.0712C207.155 40.1682 200.795 37.7727 191.97 36.5863C183.174 35.4036 171.781 35.4058 156.724 35.4058V37.4058ZM221.724 100.406C221.724 85.3491 221.726 73.956 220.544 65.1598C219.357 56.3349 216.962 49.9743 212.059 45.0712L210.644 46.4855C215.114 50.955 217.405 56.8232 218.561 65.4263C219.722 74.0582 219.724 85.2925 219.724 100.406H221.724ZM104.724 35.4058C89.6673 35.4058 78.2742 35.4036 69.4781 36.5863C60.6531 37.7727 54.2925 40.1682 49.3895 45.0712L50.8037 46.4855C55.2732 42.0159 61.1414 39.7251 69.7445 38.5684C78.3765 37.4079 89.6108 37.4058 104.724 37.4058V35.4058ZM41.724 100.406C41.724 85.2925 41.7261 74.0582 42.8867 65.4263C44.0433 56.8232 46.3342 50.955 50.8037 46.4855L49.3895 45.0712C44.4864 49.9743 42.091 56.3349 40.9045 65.1598C39.7219 73.956 39.724 85.3491 39.724 100.406H41.724Z" fill="#D9D9D9"/>
</g>
<path d="M88.1077 125.999C88.1077 142.978 97.9744 157.649 112.282 164.603L91.8213 108.542C89.3685 114.035 88.103 119.983 88.1077 125.999V125.999ZM159.957 123.834C159.957 118.533 158.053 114.862 156.42 112.005C154.245 108.471 152.208 105.479 152.208 101.946C152.208 98.0032 155.198 94.3328 159.41 94.3328C159.6 94.3328 159.781 94.3565 159.967 94.3671C152.335 87.3758 142.168 83.1072 131.001 83.1072C116.016 83.1072 102.832 90.7955 95.1627 102.441C96.169 102.471 97.1182 102.491 97.923 102.491C102.409 102.491 109.354 101.947 109.354 101.947C111.667 101.811 111.939 105.207 109.63 105.48C109.63 105.48 107.306 105.754 104.72 105.889L120.34 152.35L129.728 124.197L123.044 105.888C120.734 105.753 118.546 105.479 118.546 105.479C116.235 105.344 116.506 101.81 118.817 101.946C118.817 101.946 125.901 102.49 130.115 102.49C134.601 102.49 141.547 101.946 141.547 101.946C143.86 101.81 144.132 105.206 141.822 105.479C141.822 105.479 139.493 105.753 136.912 105.888L152.413 151.997L156.691 137.7C158.546 131.767 159.957 127.506 159.957 123.834V123.834Z" fill="#00749A"/>
<path d="M131.753 129.751L118.884 167.146C122.818 168.306 126.899 168.894 131.001 168.894C135.996 168.894 140.786 168.03 145.245 166.463C145.125 166.276 145.023 166.078 144.939 165.872L131.753 129.751ZM168.638 105.42C168.822 106.786 168.927 108.253 168.927 109.83C168.927 114.183 168.114 119.076 165.665 125.194L152.563 163.075C165.315 155.639 173.892 141.823 173.892 125.999C173.904 118.806 172.096 111.727 168.638 105.42V105.42Z" fill="#00749A"/>
<path d="M131.001 76C103.431 76 81.0004 98.4292 81.0004 125.999C81.0004 153.572 103.43 176.001 131.001 176.001C158.57 176.001 181.004 153.572 181.004 125.999C181.003 98.4292 158.57 76 131.001 76ZM131.001 173.708C104.696 173.708 83.293 152.306 83.293 125.999C83.293 99.6943 104.695 78.2934 131.001 78.2934C157.305 78.2934 178.706 99.6943 178.706 125.999C178.706 152.306 157.305 173.708 131.001 173.708Z" fill="#00749A"/>
<defs>
<filter id="filter0_d_102_62" x="0.723999" y="0.405762" width="260" height="260" filterUnits="userSpaceOnUse" color-interpolation-filters="sRGB">
<feFlood flood-opacity="0" result="BackgroundImageFix"/>
<feColorMatrix in="SourceAlpha" type="matrix" values="0 0 0 0 0 0 0 0 0 0 0 0 0 0 0 0 0 0 127 0" result="hardAlpha"/>
<feOffset dy="4"/>
<feGaussianBlur stdDeviation="20"/>
<feComposite in2="hardAlpha" operator="out"/>
<feColorMatrix type="matrix" values="0 0 0 0 0.0367917 0 0 0 0 0.0348958 0 0 0 0 0.0484375 0 0 0 0.1 0"/>
<feBlend mode="normal" in2="BackgroundImageFix" result="effect1_dropShadow_102_62"/>
<feBlend mode="normal" in="SourceGraphic" in2="effect1_dropShadow_102_62" result="shape"/>
</filter>
</defs>
</svg>
