<svg width="261" height="261" viewBox="0 0 261 261" fill="none" xmlns="http://www.w3.org/2000/svg">
<g filter="url(#filter0_d_102_42)">
<path d="M40.8956 100.406C40.8956 70.2359 40.8956 55.1509 50.2682 45.7783C59.6408 36.4058 74.7257 36.4058 104.896 36.4058H156.896C187.066 36.4058 202.15 36.4058 211.523 45.7783C220.896 55.1509 220.896 70.2359 220.896 100.406V152.406C220.896 182.576 220.896 197.661 211.523 207.033C202.15 216.406 187.066 216.406 156.896 216.406H104.896C74.7257 216.406 59.6408 216.406 50.2682 207.033C40.8956 197.661 40.8956 182.576 40.8956 152.406V100.406Z" fill="white"/>
<path d="M50.2682 207.033L49.5611 207.74L50.2682 207.033ZM211.523 207.033L210.816 206.326L211.523 207.033ZM211.523 45.7783L212.23 45.0712L211.523 45.7783ZM104.896 37.4058H156.896V35.4058H104.896V37.4058ZM219.896 100.406V152.406H221.896V100.406H219.896ZM156.896 215.406H104.896V217.406H156.896V215.406ZM41.8956 152.406V100.406H39.8956V152.406H41.8956ZM104.896 215.406C89.7824 215.406 78.5481 215.404 69.9162 214.243C61.313 213.086 55.4448 210.796 50.9753 206.326L49.5611 207.74C54.4642 212.643 60.8247 215.039 69.6497 216.225C78.4458 217.408 89.839 217.406 104.896 217.406V215.406ZM39.8956 152.406C39.8956 167.462 39.8935 178.856 41.0761 187.652C42.2626 196.477 44.658 202.837 49.5611 207.74L50.9753 206.326C46.5058 201.857 44.2149 195.988 43.0583 187.385C41.8978 178.753 41.8956 167.519 41.8956 152.406H39.8956ZM219.896 152.406C219.896 167.519 219.894 178.753 218.733 187.385C217.576 195.988 215.285 201.857 210.816 206.326L212.23 207.74C217.133 202.837 219.529 196.477 220.715 187.652C221.898 178.856 221.896 167.462 221.896 152.406H219.896ZM156.896 217.406C171.952 217.406 183.345 217.408 192.142 216.225C200.967 215.039 207.327 212.643 212.23 207.74L210.816 206.326C206.346 210.796 200.478 213.086 191.875 214.243C183.243 215.404 172.009 215.406 156.896 215.406V217.406ZM156.896 37.4058C172.009 37.4058 183.243 37.4079 191.875 38.5684C200.478 39.7251 206.346 42.0159 210.816 46.4855L212.23 45.0712C207.327 40.1682 200.967 37.7727 192.142 36.5863C183.345 35.4036 171.952 35.4058 156.896 35.4058V37.4058ZM221.896 100.406C221.896 85.3491 221.898 73.956 220.715 65.1598C219.529 56.3349 217.133 49.9743 212.23 45.0712L210.816 46.4855C215.285 50.955 217.576 56.8232 218.733 65.4263C219.894 74.0582 219.896 85.2925 219.896 100.406H221.896ZM104.896 35.4058C89.839 35.4058 78.4459 35.4036 69.6497 36.5863C60.8248 37.7727 54.4642 40.1682 49.5611 45.0712L50.9753 46.4855C55.4448 42.0159 61.313 39.7251 69.9162 38.5684C78.5481 37.4079 89.7824 37.4058 104.896 37.4058V35.4058ZM41.8956 100.406C41.8956 85.2925 41.8978 74.0582 43.0583 65.4263C44.2149 56.8232 46.5058 50.955 50.9753 46.4855L49.5611 45.0712C44.658 49.9743 42.2626 56.3349 41.0761 65.1598C39.8935 73.956 39.8956 85.3491 39.8956 100.406H41.8956Z" fill="#D9D9D9"/>
</g>
<path d="M85.1667 81.4167H176.833V170.583H85.1667V81.4167Z" fill="#2E001E"/>
<path d="M81 77.25V174.75H181V77.25H81ZM85.1667 81.4167H176.833V170.583H85.1667V81.4167Z" fill="#FF2BC2"/>
<path d="M153.625 118.208C153 117.917 152.208 117.792 151.208 117.792C145.958 117.792 142.458 121.833 142.458 128.542C142.458 136.208 146.042 139.292 150.708 139.292C151.708 139.292 152.792 139.167 153.583 138.833V118.208H153.625ZM134.958 128.875C134.958 119.167 141.208 111.583 151.458 111.583C152.333 111.583 152.792 111.583 153.625 111.667V100.833C153.625 100.583 153.833 100.417 154.042 100.417H160.75C161.083 100.417 161.167 100.542 161.167 100.75V138.833C161.167 139.958 161.167 141.375 161.375 142.917C161.375 143.208 161.375 143.25 161.125 143.375C157.625 145.042 153.958 145.792 150.458 145.792C141.417 145.792 134.958 140.208 134.958 128.875V128.875ZM120.75 122.125L132.417 144.75C132.625 145.083 132.5 145.417 132.167 145.417H124.917C124.458 145.417 124.25 145.292 124.042 144.875C121.375 139.375 118.667 133.667 115.875 127.75H115.792C113.292 133.333 110.542 139.417 107.875 144.917C107.667 145.25 107.458 145.375 107.125 145.375H100.208C99.7917 145.375 99.75 145.042 99.9583 144.792L111.375 122.833L100.333 101C100.083 100.667 100.333 100.375 100.625 100.375H107.792C108.208 100.375 108.417 100.458 108.542 100.833C111.167 106.375 113.833 111.833 116.333 117.417H116.417C118.833 111.917 121.5 106.375 124.042 100.917C124.25 100.583 124.375 100.375 124.792 100.375H131.5C131.833 100.375 131.958 100.625 131.75 101L120.75 122.125V122.125Z" fill="#FF2BC2"/>
<defs>
<filter id="filter0_d_102_42" x="0.89563" y="0.405762" width="260" height="260" filterUnits="userSpaceOnUse" color-interpolation-filters="sRGB">
<feFlood flood-opacity="0" result="BackgroundImageFix"/>
<feColorMatrix in="SourceAlpha" type="matrix" values="0 0 0 0 0 0 0 0 0 0 0 0 0 0 0 0 0 0 127 0" result="hardAlpha"/>
<feOffset dy="4"/>
<feGaussianBlur stdDeviation="20"/>
<feComposite in2="hardAlpha" operator="out"/>
<feColorMatrix type="matrix" values="0 0 0 0 0.0367917 0 0 0 0 0.0348958 0 0 0 0 0.0484375 0 0 0 0.1 0"/>
<feBlend mode="normal" in2="BackgroundImageFix" result="effect1_dropShadow_102_42"/>
<feBlend mode="normal" in="SourceGraphic" in2="effect1_dropShadow_102_42" result="shape"/>
</filter>
</defs>
</svg>
